<?xml version="1.0" encoding="UTF-8"?>
<svg width="18px" height="20px" viewBox="0 0 18 20" version="1.1" xmlns="http://www.w3.org/2000/svg" xmlns:xlink="http://www.w3.org/1999/xlink">
    <!-- Generator: Sketch 64 (93537) - https://sketch.com -->
    <title>icon-download</title>
    <desc>Created with Sketch.</desc>
    <g id="Pages" stroke="none" stroke-width="1" fill="none" fill-rule="evenodd">
        <g id="Detail" transform="translate(-1154.000000, -689.000000)" fill="currentColor" fill-rule="nonzero">
            <g id="Actions" transform="translate(1143.000000, 680.000000)">
                <g id="Archive">
                    <g id="icon-download" transform="translate(11.000000, 9.000000)">
                        <path d="M8,12.59 L8,1 C8,0.44771525 8.44771525,0 9,0 C9.55228475,0 10,0.44771525 10,1 L10,12.59 L13.3,9.29 C13.6991459,8.95283474 14.290578,8.97978463 14.6574061,9.35185316 C15.0242342,9.72392169 15.0427927,10.3156765 14.7,10.71 L9.7,15.71 C9.31115649,16.0911429 8.68884351,16.0911429 8.3,15.71 L3.3,10.71 C2.9572073,10.3156765 2.97576579,9.72392169 3.34259392,9.35185316 C3.70942204,8.97978463 4.3008541,8.95283474 4.7,9.29 L8,12.59 Z M0,15 C0,14.4477153 0.44771525,14 1,14 C1.55228475,14 2,14.4477153 2,15 L2,18 L16,18 L16,15 C16,14.4477153 16.4477153,14 17,14 C17.5522847,14 18,14.4477153 18,15 L18,18 C18,19.1045695 17.1045695,20 16,20 L2,20 C0.8954305,20 0,19.1045695 0,18 L0,15 Z" id="Shape"></path>
                    </g>
                </g>
            </g>
        </g>
    </g>
</svg>