<?xml version="1.0" encoding="UTF-8"?>
<svg width="31px" height="23px" viewBox="0 0 31 23" version="1.1" xmlns="http://www.w3.org/2000/svg" xmlns:xlink="http://www.w3.org/1999/xlink">
    <!-- Generator: Sketch 64 (93537) - https://sketch.com -->
    <title>icon-view</title>
    <desc>Created with Sketch.</desc>
    <g id="Pages" stroke="none" stroke-width="1" fill="none" fill-rule="evenodd">
        <g id="Detail" transform="translate(-200.000000, -77.000000)" fill="#000000" fill-rule="nonzero">
            <g id="Header" transform="translate(0.000000, 60.000000)">
                <g id="Branding" transform="translate(200.000000, 13.000000)">
                    <g id="icon-view" transform="translate(-0.000000, 3.000000)">
                        <path d="M23.3788235,20.6964706 C21.2604056,22.8172466 18.3857986,24.0088846 15.3882353,24.0088846 C12.390672,24.0088846 9.51606502,22.8172466 7.39764706,20.6964706 L0.423529412,13.6941176 C0.156264493,13.4290354 0.0059317774,13.0681942 0.0059317774,12.6917647 C0.0059317774,12.3153352 0.156264493,11.954494 0.423529412,11.6894118 L7.41176471,4.70117647 C9.53018267,2.58040046 12.4047897,1.38876247 15.4023529,1.38876247 C18.3999162,1.38876247 21.2745232,2.58040046 23.3929412,4.70117647 L30.3811765,11.6894118 C30.6484414,11.954494 30.7987741,12.3153352 30.7987741,12.6917647 C30.7987741,13.0681942 30.6484414,13.4290354 30.3811765,13.6941176 L23.3929412,20.6823529 L23.3788235,20.6964706 Z M9.40235294,18.6917647 C12.7094688,21.9947676 18.0670018,21.9947676 21.3741176,18.6917647 L27.36,12.7058824 L21.3741176,6.72 C18.0670018,3.41699714 12.7094688,3.41699714 9.40235294,6.72 L3.38823529,12.7058824 L9.38823529,18.6917647 L9.40235294,18.6917647 Z M15.3882353,18.3529412 C12.2694508,18.3529412 9.74117647,15.8246668 9.74117647,12.7058824 C9.74117647,9.58709788 12.2694508,7.05882353 15.3882353,7.05882353 C18.5070198,7.05882353 21.0352941,9.58709788 21.0352941,12.7058824 C21.0352941,15.8246668 18.5070198,18.3529412 15.3882353,18.3529412 Z M15.3882353,15.5294118 C16.9476275,15.5294118 18.2117647,14.2652746 18.2117647,12.7058824 C18.2117647,11.1464901 16.9476275,9.88235294 15.3882353,9.88235294 C13.8288431,9.88235294 12.5647059,11.1464901 12.5647059,12.7058824 C12.5647059,14.2652746 13.8288431,15.5294118 15.3882353,15.5294118 Z" id="Shape"></path>
                    </g>
                </g>
            </g>
        </g>
    </g>
</svg>