<?xml version="1.0" encoding="UTF-8"?>
<svg width="20px" height="20px" viewBox="0 0 20 20" version="1.1" xmlns="http://www.w3.org/2000/svg" xmlns:xlink="http://www.w3.org/1999/xlink">
    <!-- Generator: Sketch 64 (93537) - https://sketch.com -->
    <title>icon-trash</title>
    <desc>Created with Sketch.</desc>
    <g id="Pages" stroke="none" stroke-width="1" fill="none" fill-rule="evenodd">
        <g id="Detail" transform="translate(-1333.000000, -690.000000)" fill="currentColor" fill-rule="nonzero">
            <g id="Actions" transform="translate(1143.000000, 680.000000)">
                <g id="Trash" transform="translate(180.000000, 0.000000)">
                    <g id="icon-trash" transform="translate(10.000000, 10.000000)">
                        <path d="M6,4 L6,2 C6,0.9 6.9,0 8,0 L12,0 C13.1045695,0 14,0.8954305 14,2 L14,4 L19,4 C19.5522847,4 20,4.44771525 20,5 C20,5.55228475 19.5522847,6 19,6 L18,6 L18,18 C18,19.1045695 17.1045695,20 16,20 L4,20 C2.8954305,20 2,19.1045695 2,18 L2,6 L1,6 C0.44771525,6 0,5.55228475 0,5 C0,4.44771525 0.44771525,4 1,4 L6,4 Z M4,6 L4,18 L16,18 L16,6 L4,6 Z M12,4 L12,2 L8,2 L8,4 L12,4 Z M8,8 C8.55228475,8 9,8.44771525 9,9 L9,15 C9,15.5522847 8.55228475,16 8,16 C7.44771525,16 7,15.5522847 7,15 L7,9 C7,8.44771525 7.44771525,8 8,8 Z M12,8 C12.5522847,8 13,8.44771525 13,9 L13,15 C13,15.5522847 12.5522847,16 12,16 C11.4477153,16 11,15.5522847 11,15 L11,9 C11,8.44771525 11.4477153,8 12,8 Z" id="Shape"></path>
                    </g>
                </g>
            </g>
        </g>
    </g>
</svg>